<svg xmlns="http://www.w3.org/2000/svg" viewBox="0 0 512 512" width="512" height="512" role="img" aria-label="Horus"><path fill="#2D7A52" fill-rule="evenodd" d="M423.62 223.61 420.95 219.6 412.27 219.6 411.6 218.94 407.6 218.94 406.93 218.27 404.93 218.27 404.26 217.6 400.25 216.93 398.25 215.6 394.91 214.93 383.55 208.92 382.22 207.58 378.88 206.25 370.2 200.24 368.19 199.57 360.18 194.23 356.84 192.89 355.51 191.55 340.81 184.88 337.47 184.21 335.47 182.87 334.14 182.87 331.46 181.54 329.46 181.54 326.79 180.2 322.11 179.53 321.45 178.87 314.77 178.2 314.1 177.53 310.76 177.53 310.09 176.86 305.42 176.86 304.75 176.19 297.41 176.19 296.74 175.53 282.71 175.53 282.05 176.19 274.7 176.19 274.03 176.86 269.36 176.86 268.69 177.53 260.67 178.2 260.01 178.87 257.34 178.87 256.67 179.53 254 179.53 253.33 180.2 250.66 180.2 247.99 181.54 245.98 181.54 245.31 182.21 229.95 186.88 224.61 189.55 221.27 190.22 216.6 192.89 215.26 192.89 211.92 194.89 210.59 194.89 192.56 204.24 191.22 204.24 182.54 208.92 181.2 208.92 170.52 214.26 165.18 215.6 163.17 216.93 161.84 216.93 159.17 218.27 157.16 218.27 156.49 218.94 149.82 220.27 149.15 220.94 143.14 221.61 142.47 222.27 131.12 222.94 130.45 223.61 111.08 222.94 110.41 222.27 107.74 222.27 107.07 221.61 103.74 221.61 103.07 220.94 98.39 220.27 91.05 216.93 87.71 216.26 87.04 216.93 87.04 255 87.71 255.67 89.04 255.67 95.72 252.33 97.06 252.33 103.74 249.66 106.41 249.66 107.07 248.99 113.09 248.32 113.75 247.65 117.76 247.65 118.43 246.98 137.79 246.98 138.46 247.65 143.14 247.65 143.81 248.32 146.48 248.32 147.14 248.99 150.48 248.99 153.15 250.32 157.83 250.99 158.5 251.66 167.85 254.33 174.53 257.67 175.86 257.67 180.54 260.34 181.87 260.34 185.21 262.34 186.55 262.34 191.22 265.02 192.56 265.02 202.57 270.36 203.91 270.36 212.59 274.37 217.93 275.7 219.94 277.04 221.27 277.04 227.95 279.71 229.95 279.71 234.63 281.71 236.63 281.71 239.97 283.05 242.64 283.05 243.31 283.71 245.98 283.71 246.65 284.38 249.32 284.38 249.99 285.05 258 285.72 258.67 286.39 264.01 286.39 264.68 287.05 273.36 287.05 274.03 287.72 286.72 287.72 287.39 287.05 289.39 287.05 291.39 289.06 291.39 290.39 289.39 293.73 286.05 297.07 280.04 305.09 260.01 325.12 259.34 325.12 247.32 335.81 234.63 345.15 232.63 345.82 227.28 349.83 219.27 353.84 217.93 355.17 202.57 362.52 199.23 363.19 193.89 365.86 192.56 365.86 185.88 368.53 183.87 368.53 181.2 369.86 175.86 370.53 175.19 371.2 172.52 371.2 171.85 371.87 168.51 371.87 167.85 372.54 162.5 372.54 161.84 373.2 145.14 373.2 144.47 372.54 140.47 372.54 139.8 371.87 137.13 371.87 136.46 371.2 134.46 371.2 133.79 370.53 130.45 369.86 122.43 365.86 119.76 363.85 114.42 358.51 109.08 349.83 109.08 348.49 107.74 345.82 107.74 343.15 107.07 342.48 107.07 333.13 107.74 332.47 107.74 330.46 108.41 329.79 109.08 326.46 113.09 320.45 115.76 317.77 123.77 313.1 125.11 313.1 125.77 312.43 132.45 312.43 133.12 313.1 135.12 313.1 137.13 315.1 135.12 317.77 131.12 319.11 126.44 323.12 123.77 327.79 123.77 330.46 123.1 331.13 123.1 335.81 123.77 336.47 123.77 338.48 125.11 341.82 129.11 346.49 133.12 349.16 141.8 351.17 142.47 350.5 148.48 349.83 153.82 347.16 159.83 341.15 160.5 339.14 162.5 336.47 163.17 332.47 163.84 331.8 163.84 319.78 162.5 317.11 162.5 315.1 158.5 307.76 153.15 301.75 148.48 298.41 143.14 295.74 141.8 295.74 139.13 294.4 137.13 294.4 136.46 293.73 127.78 293.06 127.11 293.73 121.77 293.73 119.1 295.07 117.09 295.07 109.75 298.41 103.07 303.08 98.39 307.76 94.39 313.1 93.05 316.44 91.05 319.11 91.05 320.45 89.71 322.45 89.71 323.78 88.38 326.46 87.71 332.47 87.04 333.13 87.04 344.49 87.71 345.15 87.71 348.49 88.38 349.16 88.38 351.17 89.04 351.83 90.38 357.18 95.72 367.19 103.74 376.54 104.4 376.54 107.74 379.88 110.41 381.22 112.42 383.22 120.43 387.23 121.77 387.23 123.77 388.56 125.11 388.56 129.78 390.57 135.79 391.23 136.46 391.9 140.47 391.9 141.13 392.57 159.17 393.24 159.83 392.57 167.85 392.57 168.51 391.9 177.2 391.23 177.86 390.57 180.54 390.57 181.2 389.9 183.21 389.9 183.87 389.23 193.89 387.23 196.56 385.89 198.57 385.89 202.57 383.89 203.91 383.89 207.92 381.89 214.59 379.88 229.95 372.54 231.29 371.2 235.97 369.2 237.3 367.86 240.64 366.53 247.32 361.85 249.32 361.18 257.34 355.17 260.01 353.84 262.68 351.17 265.35 349.83 268.02 347.16 278.04 339.81 282.71 335.14 283.38 335.14 303.42 315.77 304.08 315.77 322.78 295.74 322.78 295.07 328.13 289.73 334.14 282.38 336.14 281.71 338.14 283.71 338.14 390.57 339.48 391.9 340.15 391.23 341.48 391.23 344.82 389.23 349.5 384.56 353.5 377.88 353.5 376.54 354.84 374.54 354.84 373.2 356.84 368.53 356.84 366.53 358.18 363.85 358.18 361.85 361.52 353.17 361.52 351.17 362.85 349.16 362.85 347.83 364.19 345.82 365.52 341.15 368.86 334.47 370.87 332.47 372.2 329.79 381.55 319.78 382.89 316.44 382.89 313.77 381.55 312.43 374.87 309.09 368.19 302.41 364.86 295.74 364.19 291.73 363.52 291.06 363.52 287.72 362.85 287.05 362.85 281.04 363.52 280.38 363.52 277.04 364.19 276.37 364.19 274.37 364.86 273.7 365.52 270.36 370.87 261.01 379.55 252.33 384.22 248.99 395.58 243.65 396.91 243.65 399.58 242.31 401.59 242.31 404.26 240.97 410.94 240.31 411.6 239.64 420.95 239.64 422.96 237.63 424.29 234.3 424.29 226.28 423.62 225.61Z M180.54 235.63 180.54 233.63 184.54 230.29 194.56 225.61 195.9 224.28 203.24 220.94 204.58 219.6 211.26 216.26 212.59 216.26 222.61 210.92 223.94 210.92 228.62 208.25 235.3 206.25 237.3 204.91 238.64 204.91 245.31 202.24 247.32 202.24 249.99 200.9 255.33 200.24 256 199.57 257.34 199.57 259.34 201.57 259.34 203.58 256.67 208.25 256.67 209.59 255.33 212.26 255.33 215.6 254.66 216.26 254.66 224.95 255.33 225.61 255.33 228.29 256 228.95 256 230.96 256.67 231.62 257.34 234.96 261.34 241.64 268.02 248.32 270.69 250.32 280.04 254.33 282.05 254.33 282.71 255 296.07 255 296.74 254.33 298.74 254.33 299.41 253.66 302.75 252.99 310.09 248.99 317.44 241.64 320.11 237.63 320.78 234.96 322.11 232.96 322.78 228.95 323.45 228.29 323.45 224.28 324.12 223.61 323.45 214.26 322.78 213.59 322.11 208.92 320.11 204.91 320.11 202.91 322.11 200.9 324.79 200.9 325.45 201.57 330.8 202.91 346.82 210.25 351.5 213.59 354.84 214.93 366.86 222.94 370.87 226.28 372.87 226.95 375.54 229.62 375.54 231.62 371.53 235.63 352.17 248.99 339.48 255.67 338.14 255.67 334.8 257.67 333.47 257.67 331.46 259.01 330.13 259.01 328.13 260.34 326.79 260.34 322.11 262.34 320.11 262.34 319.44 263.01 317.44 263.01 316.77 263.68 314.77 263.68 314.1 264.35 312.1 264.35 308.76 265.68 304.75 265.68 304.08 266.35 300.08 266.35 299.41 267.02 292.73 267.02 292.06 267.69 274.7 267.69 274.03 267.02 261.34 266.35 260.67 265.68 249.32 264.35 248.65 263.68 243.31 263.01 240.64 261.68 233.29 260.34 232.63 259.67 223.28 257 221.27 255.67 217.93 255 214.59 252.99 212.59 252.99 207.92 250.32 206.58 250.32 183.21 238.3Z M424.29 167.51 422.29 162.17 418.28 158.16 414.27 156.16 412.94 154.82 402.25 149.48 400.92 148.15 395.58 145.47 394.24 145.47 384.22 140.13 382.89 140.13 379.55 138.13 378.21 138.13 374.87 136.13 373.54 136.13 368.19 133.45 364.86 132.79 359.51 130.11 357.51 130.11 355.51 128.78 353.5 128.78 351.5 127.44 349.5 127.44 342.15 124.77 336.81 124.1 336.14 123.44 330.8 122.77 330.13 122.1 327.46 122.1 326.79 121.43 324.12 121.43 323.45 120.77 320.78 120.77 320.11 120.1 310.09 119.43 309.43 118.76 302.08 118.76 301.41 118.09 277.37 118.09 276.7 118.76 268.69 118.76 268.02 119.43 263.35 119.43 262.68 120.1 254.66 120.77 251.33 122.1 248.65 122.1 245.31 123.44 239.97 124.1 237.3 125.44 235.3 125.44 234.63 126.11 221.27 130.11 209.92 135.46 208.58 135.46 190.55 144.81 189.22 144.81 169.18 154.82 167.85 154.82 160.5 158.16 153.15 160.17 151.15 161.5 149.15 161.5 146.48 162.84 141.8 163.51 139.13 164.84 136.46 164.84 135.79 165.51 133.12 165.51 132.45 166.18 129.78 166.18 129.11 166.85 125.11 166.85 124.44 167.51 112.42 168.18 111.75 168.85 93.05 168.85 92.38 168.18 88.38 168.18 87.04 169.52 87.04 188.88 88.38 190.22 113.75 190.22 114.42 189.55 122.43 189.55 123.1 188.88 132.45 188.22 133.12 187.55 135.79 187.55 136.46 186.88 145.81 185.54 151.15 183.54 155.83 182.87 156.49 182.21 159.83 181.54 161.84 180.2 165.84 179.53 167.85 178.2 171.19 177.53 174.53 175.53 175.86 175.53 177.86 174.19 182.54 172.86 185.88 170.85 187.21 170.85 191.89 168.18 193.22 168.18 217.93 156.16 219.27 156.16 222.61 154.16 223.94 154.16 225.95 152.82 227.28 152.82 234.63 149.48 236.63 149.48 243.31 146.81 245.31 146.81 245.98 146.14 247.99 146.14 248.65 145.47 250.66 145.47 254 144.14 257.34 144.14 258 143.47 261.34 143.47 262.01 142.8 266.02 142.8 266.69 142.14 271.36 142.14 272.03 141.47 281.38 141.47 282.05 140.8 293.4 140.8 294.07 141.47 304.75 141.47 305.42 142.14 310.76 142.14 311.43 142.8 322.78 144.14 323.45 144.81 325.45 144.81 326.12 145.47 336.14 147.48 340.81 149.48 342.82 149.48 343.49 150.15 348.83 151.49 350.83 152.82 354.84 153.49 356.84 154.82 358.18 154.82 360.18 156.16 364.86 157.5 369.53 160.17 370.87 160.17 375.54 162.84 376.88 162.84 410.27 180.87 416.95 180.87 419.62 179.53 421.62 177.53 423.62 173.52Z"/></svg>